<svg xmlns="http://www.w3.org/2000/svg" viewBox="0 0 1090.42 249.65" width="1090.42" height="249.65"><rect x="27.31" y="27.31" width="195.04" height="195.04" rx="42.91" fill="#3D7575"/><path d="M 97.73 99.98 L 97.73 84.18 A 15.81 15.81 0 0 1 113.53 68.37 L 136.12 68.37 A 15.81 15.81 0 0 1 151.93 84.18 L 151.93 99.98" fill="none" stroke="#FFFFFF" stroke-width="10.16" stroke-linecap="round" stroke-linejoin="round"/><rect x="60.46" y="97.73" width="128.73" height="83.56" rx="19.2" fill="#FFFFFF"/><circle cx="106.19" cy="123.13" r="9.03" fill="#3D7575"/><circle cx="143.46" cy="123.13" r="9.03" fill="#3D7575"/><circle cx="106.19" cy="155.88" r="9.03" fill="#3D7575"/><circle cx="143.46" cy="155.88" r="9.03" fill="#3D7575"/><g transform="matrix(0.15000 0 0 -0.15000 277.560 174.830)"><g fill="#141414"><path transform="translate(0.00 0)" d="M22 0 278 700H431L686 0H543L354 546L164 0ZM135 159 171 264H527L562 159Z"/><path transform="translate(709.00 0)" d="M66 -220V504H186L201 434Q217 456 239.0 474.5Q261 493 291.5 504.5Q322 516 363 516Q434 516 488.0 481.0Q542 446 573.5 386.5Q605 327 605 251Q605 175 573.0 115.5Q541 56 487.0 22.0Q433 -12 364 -12Q308 -12 267.5 8.5Q227 29 201 65V-220ZM332 106Q372 106 402.5 124.0Q433 142 450.0 175.0Q467 208 467 251Q467 294 450.0 327.5Q433 361 402.5 379.5Q372 398 332 398Q293 398 262.5 379.5Q232 361 214.5 328.0Q197 295 197 252Q197 209 214.5 175.5Q232 142 262.5 124.0Q293 106 332 106Z"/><path transform="translate(1364.00 0)" d="M66 -220V504H186L201 434Q217 456 239.0 474.5Q261 493 291.5 504.5Q322 516 363 516Q434 516 488.0 481.0Q542 446 573.5 386.5Q605 327 605 251Q605 175 573.0 115.5Q541 56 487.0 22.0Q433 -12 364 -12Q308 -12 267.5 8.5Q227 29 201 65V-220ZM332 106Q372 106 402.5 124.0Q433 142 450.0 175.0Q467 208 467 251Q467 294 450.0 327.5Q433 361 402.5 379.5Q372 398 332 398Q293 398 262.5 379.5Q232 361 214.5 328.0Q197 295 197 252Q197 209 214.5 175.5Q232 142 262.5 124.0Q293 106 332 106Z"/></g><g fill="#3D7575"><path transform="translate(2019.00 0)" d="M383 -12Q278 -12 202.5 33.5Q127 79 86.5 160.5Q46 242 46 349Q46 456 86.5 538.0Q127 620 202.5 666.0Q278 712 383 712Q510 712 591.0 649.0Q672 586 692 471H545Q532 527 490.5 558.5Q449 590 382 590Q320 590 275.5 560.5Q231 531 207.0 477.5Q183 424 183 349Q183 275 207.0 221.0Q231 167 275.5 138.0Q320 109 382 109Q449 109 490.0 138.5Q531 168 544 221H692Q672 112 591.0 50.0Q510 -12 383 -12Z"/><path transform="translate(2757.00 0)" d="M236 -12Q173 -12 132.0 8.5Q91 29 71.5 63.5Q52 98 52 140Q52 186 75.5 221.0Q99 256 146.5 276.0Q194 296 266 296H391Q391 333 381.0 357.5Q371 382 350.0 394.0Q329 406 294 406Q256 406 229.5 389.5Q203 373 197 339H66Q71 393 101.5 432.5Q132 472 182.5 494.0Q233 516 295 516Q366 516 418.0 492.0Q470 468 498.0 423.0Q526 378 526 312V0H412L397 77Q386 57 371.0 41.0Q356 25 336.0 13.0Q316 1 291.0 -5.5Q266 -12 236 -12ZM268 92Q294 92 314.5 101.5Q335 111 350.0 127.5Q365 144 373.5 165.5Q382 187 385 212V213H282Q251 213 231.5 205.5Q212 198 203.0 184.0Q194 170 194 152Q194 132 203.0 119.0Q212 106 229.0 99.0Q246 92 268 92Z"/><path transform="translate(3343.00 0)" d="M290 -12Q221 -12 166.5 22.0Q112 56 81.0 116.0Q50 176 50 251Q50 328 81.5 387.5Q113 447 168.5 481.5Q224 516 293 516Q347 516 388.0 496.0Q429 476 454 439V720H589V0H469L454 69Q439 48 416.5 29.0Q394 10 363.0 -1.0Q332 -12 290 -12ZM322 106Q362 106 392.5 124.5Q423 143 440.0 176.0Q457 209 457 252Q457 295 440.0 328.0Q423 361 392.5 379.5Q362 398 322 398Q284 398 253.0 379.5Q222 361 204.5 328.0Q187 295 187 253Q187 209 204.5 176.0Q222 143 252.5 124.5Q283 106 322 106Z"/><path transform="translate(3998.00 0)" d="M290 -12Q221 -12 166.5 22.0Q112 56 81.0 116.0Q50 176 50 251Q50 328 81.5 387.5Q113 447 168.5 481.5Q224 516 293 516Q347 516 388.0 496.0Q429 476 454 439V720H589V0H469L454 69Q439 48 416.5 29.0Q394 10 363.0 -1.0Q332 -12 290 -12ZM322 106Q362 106 392.5 124.5Q423 143 440.0 176.0Q457 209 457 252Q457 295 440.0 328.0Q423 361 392.5 379.5Q362 398 322 398Q284 398 253.0 379.5Q222 361 204.5 328.0Q187 295 187 253Q187 209 204.5 176.0Q222 143 252.5 124.5Q283 106 322 106Z"/><path transform="translate(4653.00 0)" d="M130 -220 252 56H222L20 504H167L311 179L441 504H584L273 -220Z"/></g></g></svg>